<svg width="12" height="15" viewBox="0 0 12 15" fill="none" xmlns="http://www.w3.org/2000/svg">
<path d="M11.2941 4.88535C11.2109 4.94984 9.74348 5.77673 9.74348 7.61536C9.74348 9.74205 11.6108 10.4944 11.6667 10.513C11.6581 10.5589 11.37 11.5434 10.6821 12.5466C10.0688 13.4294 9.4282 14.3107 8.45371 14.3107C7.47922 14.3107 7.22843 13.7446 6.10347 13.7446C5.00717 13.7446 4.61737 14.3293 3.726 14.3293C2.83462 14.3293 2.21267 13.5125 1.49756 12.5093C0.669246 11.3313 0 9.50129 0 7.7644C0 4.9785 1.81141 3.501 3.59415 3.501C4.54142 3.501 5.33104 4.12296 5.92577 4.12296C6.49183 4.12296 7.37461 3.46374 8.45228 3.46374C8.86071 3.46374 10.3282 3.501 11.2941 4.88535ZM7.94067 2.28432C8.38636 1.75552 8.70163 1.02178 8.70163 0.288048C8.70163 0.1863 8.69304 0.0831184 8.67441 0C7.94927 0.0272284 7.08656 0.482947 6.56635 1.08627C6.15793 1.55059 5.77673 2.28432 5.77673 3.02809C5.77673 3.13987 5.79536 3.25165 5.80396 3.28748C5.84981 3.29607 5.92433 3.30611 5.99885 3.30611C6.64947 3.30611 7.46776 2.87045 7.94067 2.28432Z" fill="white"/>
</svg>
