<svg width="20" height="20" viewBox="0 0 20 20" fill="none" xmlns="http://www.w3.org/2000/svg">
<path fill-rule="evenodd" clip-rule="evenodd" d="M12.7434 6.6281C12.0412 5.95838 11.1041 5.59352 10.1345 5.60852C8.3602 5.60852 6.85332 6.80552 6.31603 8.41735C6.03115 9.26201 6.03115 10.1767 6.31603 11.0213H6.31852C6.8583 12.6307 8.36269 13.8277 10.137 13.8277C11.0528 13.8277 11.8391 13.5934 12.4485 13.1796V13.178C13.1657 12.7032 13.6555 11.956 13.808 11.1113H10.1345V8.49237H16.5494C16.6293 8.94718 16.6668 9.41199 16.6668 9.87431C16.6668 11.9428 15.9276 13.6917 14.6413 14.8762L14.6426 14.8773C13.5156 15.9168 11.9687 16.5191 10.1345 16.5191C7.56302 16.5191 5.21147 15.0697 4.05694 12.7731C3.09234 10.8514 3.09235 8.58732 4.05695 6.66561C5.21148 4.36654 7.56302 2.91711 10.1345 2.91711C11.8238 2.89712 13.4556 3.53186 14.6851 4.68639L12.7434 6.6281Z" fill="white"/>
</svg>
