<svg width="24" height="24" viewBox="0 0 24 24" fill="none" xmlns="http://www.w3.org/2000/svg">
<g clip-path="url(#clip0_328_491)">
<path d="M11.9977 4C9.76621 4 7.94208 5.82414 7.94208 8.05563C7.94208 10.2871 9.76621 12.1113 11.9977 12.1113C14.2292 12.1113 16.0533 10.2871 16.0533 8.05563C16.0533 5.82414 14.2292 4 11.9977 4Z" fill="#A6A6A6"/>
<path d="M18.9578 15.3522C18.8515 15.0865 18.7099 14.8386 18.5505 14.6084C17.7358 13.4041 16.4784 12.6071 15.0616 12.4123C14.8845 12.3946 14.6897 12.43 14.548 12.5363C13.8042 13.0853 12.9187 13.3686 11.9977 13.3686C11.0768 13.3686 10.1913 13.0853 9.44746 12.5363C9.30576 12.43 9.11095 12.3769 8.93386 12.4123C7.51705 12.6071 6.24193 13.4041 5.44498 14.6084C5.28559 14.8386 5.1439 15.1043 5.03766 15.3522C4.98454 15.4585 5.00224 15.5824 5.05536 15.6887C5.19705 15.9366 5.37414 16.1846 5.53353 16.3971C5.78146 16.7336 6.04712 17.0347 6.3482 17.318C6.59614 17.566 6.87949 17.7962 7.16288 18.0264C8.56197 19.0714 10.2444 19.6203 11.98 19.6203C13.7156 19.6203 15.3981 19.0713 16.7972 18.0264C17.0805 17.8139 17.3639 17.566 17.6119 17.318C17.8952 17.0347 18.1786 16.7336 18.4265 16.3971C18.6036 16.1669 18.763 15.9366 18.9047 15.6887C18.9932 15.5824 19.0109 15.4584 18.9578 15.3522Z" fill="#A6A6A6"/>
</g>
<defs>
<clipPath id="clip0_328_491">
<rect width="14" height="15.6271" fill="white" transform="translate(5 4)"/>
</clipPath>
</defs>
</svg>
