<svg width="112" height="32" viewBox="0 0 112 32" fill="none" xmlns="http://www.w3.org/2000/svg">
<mask id="mask0_321_387" style="mask-type:luminance" maskUnits="userSpaceOnUse" x="0" y="4" width="112" height="24">
<path d="M111.617 4H0.383789V28H111.617V4Z" fill="white"/>
</mask>
<g mask="url(#mask0_321_387)">
<path d="M53.8163 26.8781C52.4825 26.1317 51.4401 25.0673 50.6849 23.6893C49.9296 22.3113 49.5498 20.7169 49.5498 18.8973C49.5498 17.0776 49.9385 15.5185 50.7158 14.1405C51.4931 12.7626 52.5531 11.707 53.8958 10.9694C55.2384 10.2318 56.7401 9.86523 58.4052 9.86523C60.0702 9.86523 61.5719 10.2318 62.9145 10.9694C64.2572 11.707 65.3172 12.7581 66.0945 14.1273C66.8719 15.492 67.2605 17.0864 67.2605 18.9017C67.2605 20.7169 66.8586 22.3157 66.0636 23.6937C65.2642 25.0717 64.1821 26.1361 62.8174 26.8825C61.4526 27.6289 59.9377 28.0044 58.2771 28.0044C56.6164 28.0044 55.1501 27.6289 53.8163 26.8825M61.2186 24.7051C62.1328 24.2149 62.8748 23.4773 63.4401 22.4924C64.0055 21.5119 64.2881 20.315 64.2881 18.9017C64.2881 17.4883 64.0099 16.2959 63.4578 15.3154C62.9013 14.3349 62.177 13.6017 61.2848 13.1203C60.3882 12.6389 59.421 12.4004 58.3742 12.4004C57.3275 12.4004 56.3338 12.6389 55.4504 13.1203C54.5671 13.6017 53.856 14.3349 53.326 15.3154C52.7916 16.3003 52.5266 17.4928 52.5266 18.9017C52.5266 20.3106 52.7872 21.5384 53.3084 22.5233C53.8295 23.5082 54.5274 24.237 55.4018 24.7184C56.2763 25.1998 57.2348 25.4383 58.2771 25.4383C59.3194 25.4383 60.2999 25.1954 61.2186 24.7007" fill="#FF512C"/>
<path d="M92.6957 26.8781C91.3618 26.1317 90.3195 25.0673 89.5643 23.6893C88.809 22.3113 88.4292 20.7169 88.4292 18.8973C88.4292 17.0776 88.8179 15.5185 89.5952 14.1405C90.3725 12.7626 91.4325 11.707 92.7752 10.9694C94.1178 10.2318 95.6195 9.86523 97.2845 9.86523C98.9496 9.86523 100.451 10.2318 101.794 10.9694C103.137 11.707 104.197 12.7581 104.974 14.1273C105.751 15.492 106.14 17.0864 106.14 18.9017C106.14 20.7169 105.738 22.3157 104.943 23.6937C104.144 25.0717 103.062 26.1361 101.697 26.8825C100.332 27.6289 98.8171 28.0044 97.1565 28.0044C95.4958 28.0044 94.0295 27.6289 92.6957 26.8825M100.098 24.7051C101.012 24.2149 101.754 23.4773 102.32 22.4924C102.885 21.5119 103.168 20.315 103.168 18.9017C103.168 17.4883 102.889 16.2959 102.337 15.3154C101.781 14.3349 101.056 13.6017 100.164 13.1203C99.2676 12.6389 98.3004 12.4004 97.2536 12.4004C96.2069 12.4004 95.2132 12.6389 94.3298 13.1203C93.4465 13.6017 92.7354 14.3349 92.2054 15.3154C91.671 16.3003 91.406 17.4928 91.406 18.9017C91.406 20.3106 91.6666 21.5384 92.1878 22.5233C92.7089 23.5082 93.4067 24.237 94.2812 24.7184C95.1557 25.1998 96.1141 25.4383 97.1565 25.4383C98.1988 25.4383 99.1793 25.1954 100.098 24.7007" fill="#FF512C"/>
<path d="M86.7024 4H83.7609V11.9279C83.3325 11.5569 82.8644 11.23 82.3564 10.9518C81.0138 10.2142 79.5121 9.84763 77.8471 9.84763C76.182 9.84763 74.6803 10.2142 73.3377 10.9518C71.995 11.6894 70.935 12.7449 70.1577 14.1229C69.3804 15.5009 68.9917 17.0865 68.9917 18.8796C68.9917 20.6728 69.3715 22.2937 70.1268 23.6717C70.882 25.0497 71.9288 26.1141 73.2582 26.8605C74.592 27.6069 76.076 27.9823 77.719 27.9823C79.362 27.9823 80.8945 27.6069 82.2593 26.8605C83.624 26.1141 84.7061 25.0497 85.5055 23.6717C86.3049 22.2937 86.7024 20.6993 86.7024 18.8796C86.7024 18.8178 86.7024 18.7604 86.698 18.6986H86.7024V4ZM82.882 22.4704C82.3167 23.4553 81.5747 24.1884 80.6605 24.6831C79.7418 25.1734 78.7613 25.4207 77.719 25.4207C76.6767 25.4207 75.7138 25.1822 74.8393 24.7008C73.9648 24.2194 73.267 23.4906 72.7458 22.5057C72.2247 21.5252 71.9641 20.3151 71.9641 18.8841C71.9641 17.4531 72.2291 16.2782 72.7635 15.2933C73.2979 14.3128 74.0046 13.5797 74.8879 13.0983C75.7712 12.6169 76.7473 12.3784 77.8117 12.3784C78.8761 12.3784 79.8257 12.6169 80.7223 13.0983C81.6189 13.5797 82.3432 14.3128 82.8953 15.2933C83.4474 16.2782 83.7256 17.4707 83.7256 18.8841C83.7256 20.2974 83.4429 21.4899 82.8776 22.4704" fill="#FF512C"/>
<path d="M47.7656 20.0191H33.7605C33.8665 21.7504 34.4583 23.1019 35.536 24.0736C36.6136 25.0452 37.9165 25.5311 39.4535 25.5311C40.7123 25.5311 41.759 25.2396 42.6026 24.6522C43.4462 24.0647 44.038 23.2786 44.3781 22.2981H47.5095C47.0413 23.9852 46.105 25.3588 44.6961 26.4144C43.2872 27.47 41.5426 28 39.4535 28C37.7929 28 36.3045 27.6245 34.9927 26.8781C33.681 26.1317 32.6519 25.0673 31.9055 23.6893C31.1591 22.3113 30.7881 20.7169 30.7881 18.8973C30.7881 17.0776 31.1503 15.4921 31.8746 14.1229C32.5989 12.7537 33.6147 11.7026 34.9265 10.965C36.2382 10.2274 37.7443 9.86084 39.4491 9.86084C41.1539 9.86084 42.5805 10.223 43.8613 10.9517C45.1422 11.6761 46.1271 12.6787 46.8205 13.9462C47.5139 15.2182 47.8584 16.6536 47.8584 18.2569C47.8584 18.8134 47.8275 19.4008 47.7612 20.0191M44.1175 14.781C43.6272 13.9816 42.9603 13.3721 42.1168 12.9569C41.2732 12.5417 40.3413 12.3342 39.321 12.3342C37.8503 12.3342 36.596 12.8023 35.5625 13.7431C34.529 14.6838 33.9371 15.9867 33.787 17.6518H44.8507C44.8507 16.5432 44.6033 15.5848 44.1175 14.7854" fill="#FF512C"/>
<path d="M108.004 27.1122C107.589 26.6926 107.377 26.1847 107.377 25.5797C107.377 24.9746 107.585 24.4667 108.004 24.0471C108.419 23.6275 108.932 23.4199 109.532 23.4199C110.133 23.4199 110.606 23.6275 111.007 24.0471C111.414 24.4667 111.617 24.9746 111.617 25.5797C111.617 26.1847 111.414 26.6926 111.007 27.1122C110.601 27.5318 110.111 27.7394 109.532 27.7394C108.954 27.7394 108.419 27.5318 108.004 27.1122Z" fill="#FF512C"/>
<path d="M9.37606 24.8465C6.00175 24.8465 3.26785 22.1038 3.26785 18.7251V12.7538H9.37606V9.86529H3.26785V4H0.383789V18.7251C0.383789 23.7026 4.41176 27.735 9.37606 27.735H10.9042V24.8465H9.37606Z" fill="#FF512C"/>
<path d="M29.2287 17.7446C29.2067 13.4958 25.7484 10.0553 21.5305 10.0553C19.68 10.0553 17.984 10.7178 16.6634 11.8175V5.25439H13.8677V27.7395H16.6634V17.2235C16.9461 14.6044 19.0175 12.7627 21.5305 12.7627C24.2247 12.7627 26.4065 14.8782 26.433 17.7932V27.7395H29.2287V17.7491V17.7446Z" fill="#FF512C"/>
</g>
</svg>
