<svg width="112" height="32" viewBox="0 0 112 32" fill="none" xmlns="http://www.w3.org/2000/svg">
<mask id="mask0_321_387" style="mask-type:luminance" maskUnits="userSpaceOnUse" x="0" y="4" width="112" height="24">
<path d="M111.613 4H0.379883V28H111.613V4Z" fill="white"/>
</mask>
<g mask="url(#mask0_321_387)">
<path d="M53.8124 26.8781C52.4786 26.1317 51.4362 25.0673 50.681 23.6893C49.9257 22.3113 49.5459 20.7169 49.5459 18.8973C49.5459 17.0776 49.9346 15.5185 50.7119 14.1405C51.4892 12.7626 52.5492 11.707 53.8919 10.9694C55.2345 10.2318 56.7362 9.86523 58.4013 9.86523C60.0663 9.86523 61.568 10.2318 62.9106 10.9694C64.2533 11.707 65.3133 12.7581 66.0906 14.1273C66.868 15.492 67.2566 17.0864 67.2566 18.9017C67.2566 20.7169 66.8547 22.3157 66.0597 23.6937C65.2603 25.0717 64.1782 26.1361 62.8135 26.8825C61.4487 27.6289 59.9338 28.0044 58.2732 28.0044C56.6125 28.0044 55.1462 27.6289 53.8124 26.8825M61.2147 24.7051C62.1289 24.2149 62.8709 23.4773 63.4362 22.4924C64.0016 21.5119 64.2842 20.315 64.2842 18.9017C64.2842 17.4883 64.006 16.2959 63.4539 15.3154C62.8974 14.3349 62.1731 13.6017 61.2809 13.1203C60.3843 12.6389 59.4171 12.4004 58.3703 12.4004C57.3236 12.4004 56.3299 12.6389 55.4465 13.1203C54.5632 13.6017 53.8521 14.3349 53.3221 15.3154C52.7877 16.3003 52.5227 17.4928 52.5227 18.9017C52.5227 20.3106 52.7833 21.5384 53.3045 22.5233C53.8256 23.5082 54.5235 24.237 55.3979 24.7184C56.2724 25.1998 57.2309 25.4383 58.2732 25.4383C59.3155 25.4383 60.296 25.1954 61.2147 24.7007" fill="white"/>
<path d="M92.6918 26.8781C91.3579 26.1317 90.3156 25.0673 89.5604 23.6893C88.8051 22.3113 88.4253 20.7169 88.4253 18.8973C88.4253 17.0776 88.814 15.5185 89.5913 14.1405C90.3686 12.7626 91.4286 11.707 92.7713 10.9694C94.1139 10.2318 95.6156 9.86523 97.2806 9.86523C98.9457 9.86523 100.447 10.2318 101.79 10.9694C103.133 11.707 104.193 12.7581 104.97 14.1273C105.747 15.492 106.136 17.0864 106.136 18.9017C106.136 20.7169 105.734 22.3157 104.939 23.6937C104.14 25.0717 103.058 26.1361 101.693 26.8825C100.328 27.6289 98.8132 28.0044 97.1526 28.0044C95.4919 28.0044 94.0256 27.6289 92.6918 26.8825M100.094 24.7051C101.008 24.2149 101.75 23.4773 102.316 22.4924C102.881 21.5119 103.164 20.315 103.164 18.9017C103.164 17.4883 102.885 16.2959 102.333 15.3154C101.777 14.3349 101.052 13.6017 100.16 13.1203C99.2637 12.6389 98.2965 12.4004 97.2497 12.4004C96.203 12.4004 95.2093 12.6389 94.3259 13.1203C93.4426 13.6017 92.7315 14.3349 92.2015 15.3154C91.6671 16.3003 91.4021 17.4928 91.4021 18.9017C91.4021 20.3106 91.6627 21.5384 92.1839 22.5233C92.705 23.5082 93.4028 24.237 94.2773 24.7184C95.1518 25.1998 96.1102 25.4383 97.1526 25.4383C98.1949 25.4383 99.1754 25.1954 100.094 24.7007" fill="white"/>
<path d="M86.6985 4H83.757V11.9279C83.3286 11.5569 82.8605 11.23 82.3525 10.9518C81.0099 10.2142 79.5082 9.84763 77.8432 9.84763C76.1781 9.84763 74.6764 10.2142 73.3338 10.9518C71.9911 11.6894 70.9311 12.7449 70.1538 14.1229C69.3765 15.5009 68.9878 17.0865 68.9878 18.8796C68.9878 20.6728 69.3676 22.2937 70.1229 23.6717C70.8781 25.0497 71.9249 26.1141 73.2543 26.8605C74.5881 27.6069 76.0721 27.9823 77.7151 27.9823C79.3581 27.9823 80.8906 27.6069 82.2554 26.8605C83.6201 26.1141 84.7022 25.0497 85.5016 23.6717C86.301 22.2937 86.6985 20.6993 86.6985 18.8796C86.6985 18.8178 86.6985 18.7604 86.6941 18.6986H86.6985V4ZM82.8781 22.4704C82.3128 23.4553 81.5708 24.1884 80.6566 24.6831C79.7379 25.1734 78.7574 25.4207 77.7151 25.4207C76.6728 25.4207 75.7099 25.1822 74.8354 24.7008C73.9609 24.2194 73.2631 23.4906 72.7419 22.5057C72.2208 21.5252 71.9602 20.3151 71.9602 18.8841C71.9602 17.4531 72.2252 16.2782 72.7596 15.2933C73.294 14.3128 74.0007 13.5797 74.884 13.0983C75.7673 12.6169 76.7434 12.3784 77.8078 12.3784C78.8722 12.3784 79.8218 12.6169 80.7184 13.0983C81.615 13.5797 82.3393 14.3128 82.8914 15.2933C83.4435 16.2782 83.7217 17.4707 83.7217 18.8841C83.7217 20.2974 83.439 21.4899 82.8737 22.4704" fill="white"/>
<path d="M47.7617 20.0191H33.7566C33.8626 21.7504 34.4544 23.1019 35.5321 24.0736C36.6097 25.0452 37.9126 25.5311 39.4496 25.5311C40.7084 25.5311 41.7551 25.2396 42.5987 24.6522C43.4423 24.0647 44.0341 23.2786 44.3742 22.2981H47.5056C47.0374 23.9852 46.1011 25.3588 44.6922 26.4144C43.2833 27.47 41.5387 28 39.4496 28C37.789 28 36.3006 27.6245 34.9888 26.8781C33.6771 26.1317 32.648 25.0673 31.9016 23.6893C31.1552 22.3113 30.7842 20.7169 30.7842 18.8973C30.7842 17.0776 31.1464 15.4921 31.8707 14.1229C32.595 12.7537 33.6108 11.7026 34.9226 10.965C36.2343 10.2274 37.7404 9.86084 39.4452 9.86084C41.15 9.86084 42.5766 10.223 43.8574 10.9517C45.1383 11.6761 46.1232 12.6787 46.8166 13.9462C47.51 15.2182 47.8545 16.6536 47.8545 18.2569C47.8545 18.8134 47.8236 19.4008 47.7573 20.0191M44.1136 14.781C43.6233 13.9816 42.9564 13.3721 42.1129 12.9569C41.2693 12.5417 40.3374 12.3342 39.3171 12.3342C37.8464 12.3342 36.5921 12.8023 35.5586 13.7431C34.5251 14.6838 33.9332 15.9867 33.7831 17.6518H44.8468C44.8468 16.5432 44.5994 15.5848 44.1136 14.7854" fill="white"/>
<path d="M108 27.1122C107.585 26.6926 107.373 26.1847 107.373 25.5797C107.373 24.9746 107.581 24.4667 108 24.0471C108.415 23.6275 108.928 23.4199 109.528 23.4199C110.129 23.4199 110.602 23.6275 111.003 24.0471C111.41 24.4667 111.613 24.9746 111.613 25.5797C111.613 26.1847 111.41 26.6926 111.003 27.1122C110.597 27.5318 110.107 27.7394 109.528 27.7394C108.95 27.7394 108.415 27.5318 108 27.1122Z" fill="white"/>
<path d="M9.37215 24.8465C5.99784 24.8465 3.26394 22.1038 3.26394 18.7251V12.7538H9.37215V9.86529H3.26394V4H0.379883V18.7251C0.379883 23.7026 4.40785 27.735 9.37215 27.735H10.9003V24.8465H9.37215Z" fill="white"/>
<path d="M29.2248 17.7446C29.2028 13.4958 25.7445 10.0553 21.5266 10.0553C19.6761 10.0553 17.9801 10.7178 16.6595 11.8175V5.25439H13.8638V27.7395H16.6595V17.2235C16.9422 14.6044 19.0136 12.7627 21.5266 12.7627C24.2208 12.7627 26.4026 14.8782 26.4291 17.7932V27.7395H29.2248V17.7491V17.7446Z" fill="white"/>
</g>
</svg>
