<svg width="20" height="20" viewBox="0 0 20 20" fill="none" xmlns="http://www.w3.org/2000/svg">
<path d="M16.667 5H3.33366C2.41318 5 1.66699 5.74619 1.66699 6.66667V13.3333C1.66699 14.2538 2.41318 15 3.33366 15H16.667C17.5875 15 18.3337 14.2538 18.3337 13.3333V6.66667C18.3337 5.74619 17.5875 5 16.667 5Z" stroke="#404040" stroke-width="2" stroke-linecap="round" stroke-linejoin="round"/>
<path d="M9.99967 11.6667C10.9201 11.6667 11.6663 10.9205 11.6663 10C11.6663 9.07953 10.9201 8.33334 9.99967 8.33334C9.0792 8.33334 8.33301 9.07953 8.33301 10C8.33301 10.9205 9.0792 11.6667 9.99967 11.6667Z" stroke="#404040" stroke-width="2" stroke-linecap="round" stroke-linejoin="round"/>
<path d="M15 10H15.0083M5 10H5.00833H5Z" stroke="#404040" stroke-width="2" stroke-linecap="round" stroke-linejoin="round"/>
</svg>
